<?xml version="1.0" encoding="utf-8"?>
<!-- Generator: Adobe Illustrator 22.0.0, SVG Export Plug-In . SVG Version: 6.00 Build 0)  -->
<svg version="1.1" id="Capa_2" xmlns="http://www.w3.org/2000/svg" xmlns:xlink="http://www.w3.org/1999/xlink" x="0px" y="0px"
	 viewBox="0 0 492.372 409.404" enable-background="new 0 0 492.372 409.404" xml:space="preserve">
<g>
	<path fill-rule="evenodd" clip-rule="evenodd" fill="#FB5E08" d="M27.358,409.404C12.255,409.404,0,397.15,0,382.08v-65.877
		c0-15.103,12.255-27.358,27.358-27.358h35.572v-72.799c0-5.2,4.239-9.439,9.439-9.439h166.133v-47.131h18.647v46.965h162.689
		c5.233,0,9.473,4.239,9.473,9.473v72.799h35.704c15.07,0,27.358,12.288,27.358,27.358v65.877c0,15.07-12.288,27.358-27.358,27.358
		h-90.088c-15.07,0-27.325-12.288-27.325-27.358V316.07c0-15.07,12.255-27.358,27.325-27.358h35.704v-63.327H257.281v63.327h34.048
		c15.103,0,27.358,12.288,27.358,27.358v65.877c0,15.07-12.255,27.358-27.358,27.358h-90.188c-15.07,0-27.358-12.288-27.358-27.358
		V316.07c0-15.07,12.288-27.358,27.358-27.358h37.36v-63.327H81.841v63.327h35.704c15.07,0,27.358,12.288,27.358,27.358v65.877
		c0,15.07-12.288,27.358-27.358,27.358c-15.732,0-30.007,0.033-44.415,0.066C58.524,409.371,43.786,409.404,27.358,409.404
		L27.358,409.404z M374.826,307.658c-4.571,0-8.446,3.842-8.446,8.413v65.877c0,4.637,3.676,8.413,8.181,8.413
		c0.132,0,0.232,0,0.364,0h90.088c4.571,0,8.413-3.842,8.413-8.413V316.07c0-4.571-3.842-8.446-8.413-8.446l0,0L374.826,307.658z
		 M201.142,307.625c-4.571,0-8.413,3.875-8.413,8.446v65.877c0,4.571,3.842,8.413,8.413,8.413h90.188
		c4.571,0,8.413-3.842,8.413-8.413V316.07c0-4.571-3.842-8.446-8.413-8.446H201.142z M27.358,307.625
		c-4.571,0-8.413,3.875-8.413,8.446v65.877c0,4.571,3.842,8.413,8.413,8.413h90.188c4.571,0,8.413-3.842,8.413-8.413V316.07
		c0-4.571-3.842-8.446-8.413-8.446H27.358z"/>
	<path fill-rule="evenodd" clip-rule="evenodd" fill="#232121" d="M183.257,144.307c-15.103,0-27.358-12.255-27.358-27.358V27.358
		C155.899,12.255,168.154,0,183.257,0h129.137c15.103,0,27.358,12.255,27.358,27.358v89.492c0,15.07-12.255,27.358-27.358,27.358
		c-21.562,0-43.057,0-64.552,0.033S204.851,144.307,183.257,144.307L183.257,144.307z M183.124,18.945
		c-4.571,0-8.413,3.842-8.413,8.413v89.591c0,4.67,3.842,8.446,8.545,8.446h129.137c4.571,0,8.413-3.842,8.413-8.446V27.358
		c0-4.571-3.842-8.413-8.413-8.413H183.124z"/>
</g>
</svg>
