<?xml version="1.0" encoding="utf-8"?>
<!-- Generator: Adobe Illustrator 22.0.0, SVG Export Plug-In . SVG Version: 6.00 Build 0)  -->
<svg version="1.1" id="Capa_1" xmlns="http://www.w3.org/2000/svg" xmlns:xlink="http://www.w3.org/1999/xlink" x="0px" y="0px"
	 viewBox="0 0 282 60" style="enable-background:new 0 0 282 60;" xml:space="preserve">
<style type="text/css">
	.st0{fill:#232121;}
	.st1{fill:#FFFFFF;}
</style>
<g>
	<g>
		<path class="st0" d="M95.3,15.8h-8.2l1-4.6h21.6l-1,4.6h-8l-6.3,29.6H89L95.3,15.8z"/>
		<path class="st0" d="M107.2,19.6h5.2l-0.9,4h0.1c1.8-2.9,4.1-4.7,7-4.7c0.6,0,0.9,0.1,1.2,0.2l-1.1,5.3c-0.3-0.1-1.2-0.3-2.1-0.3
			c-2.4,0-5.4,1.1-6.4,5.9l-3.3,15.4h-5.2L107.2,19.6z"/>
		<path class="st0" d="M134.7,40c-0.2,1,0.2,1.8,1,1.8c0.3,0,0.7,0,0.9-0.1l-0.7,3.4c-0.7,0.3-1.6,0.6-2.6,0.6c-2.3,0-4-0.9-3.6-3.4
			h-0.1c-1.9,2.5-4.2,3.8-7.2,3.8c-4.1,0-6.2-2.3-5.2-7.2c1.2-5.8,4-7,7.7-8.1l4.3-1.1c2-0.5,3.3-1.1,3.7-3.3c0.5-2.4,0-3.8-2.7-3.8
			c-3.5,0-4.5,2.4-5,4.9h-4.9c1.2-5.5,4-8.5,10.8-8.5c4.6,0,7.8,1.8,6.9,6.3L134.7,40z M131.5,31.8c-1.5,1.1-4.6,1.7-6.2,2.4
			c-1.6,0.7-2.6,2.3-3,4.2c-0.4,2.2,0.2,3.9,2.4,3.9c3.1,0,5.1-2.4,5.9-6.1L131.5,31.8z"/>
		<path class="st0" d="M144.3,19.6h4.9l-0.6,3h0.1c1.8-2.3,4.5-3.7,7.4-3.7c3.9,0,6,1.8,4.9,7l-4.1,19.5h-5.2l3.7-17.7
			c0.7-3.4,0-4.7-2.6-4.7c-2.1,0-4.5,1.7-5.2,5L144,45.4h-5.2L144.3,19.6z"/>
		<path class="st0" d="M176.9,27.1l0.1-0.7c0.4-2.1,0.1-4-2.5-4c-2.1,0-3.9,1-4.4,3.4c-0.4,2,0.3,2.8,2.8,3.8l3.1,1.2
			c3.6,1.3,4.9,3.4,4,7.4c-1.2,5.5-5.7,7.9-10.9,7.9c-6.5,0-7.9-3-6.8-8l0.2-1h4.6l-0.2,0.8c-0.6,3,0.1,4.6,3.1,4.6
			c2.8,0,4.5-1.4,5-3.8c0.4-1.9-0.3-3.2-2.1-3.8l-3.9-1.5c-3.6-1.3-4.8-3.3-3.9-7.4c1-4.8,5-7.1,10.3-7.1c6.6,0,7.2,3.8,6.6,7.1
			l-0.2,1.2L176.9,27.1L176.9,27.1z"/>
		<path class="st0" d="M187.8,19.6h4.9l-0.7,3.2h0.1c1.6-2.3,3.8-3.8,6.6-3.8c5.9,0,7.2,5,5.4,13.9c-2.3,10.8-7.2,13.2-10.8,13.2
			c-2.8,0-4.6-1.4-5.1-3.7h-0.1l-2.4,11.5h-5.2L187.8,19.6z M192.3,42c3,0,4.8-2.2,6.3-9.4c1.2-5.9,1.2-9.5-2.4-9.5
			c-3.6,0-5.1,3.6-6.3,9.2C188.7,38.4,188.7,42,192.3,42z"/>
		<path class="st0" d="M219.6,18.9c7.5,0,8.5,5.6,6.8,13.6c-1.7,8-5.3,13.6-12.5,13.6c-7.1,0-8.4-5.6-6.7-13.6
			C208.8,24.5,212.1,18.9,219.6,18.9z M214.6,42.2c3.8,0,5.1-3.2,6.5-9.7c1.2-5.7,1.4-9.7-2.4-9.7c-3.7,0-5.3,4-6.5,9.7
			C210.9,39.1,210.9,42.2,214.6,42.2z"/>
		<path class="st0" d="M233.1,19.6h5.2l-0.9,4h0.1c1.8-2.9,4.1-4.7,7-4.7c0.6,0,0.9,0.1,1.2,0.2l-1.1,5.3c-0.3-0.1-1.2-0.3-2.1-0.3
			c-2.4,0-5.4,1.1-6.4,5.9l-3.3,15.4h-5.2L233.1,19.6z"/>
		<path class="st0" d="M245.9,19.6h3.5l1.6-7.3h5.2l-1.6,7.3h4.2l-0.8,3.8h-4.2l-3.3,15.4c-0.4,2,0,2.7,1.8,2.7c0.8,0,1.4,0,1.9-0.1
			l-0.8,3.8c-1.2,0.3-2.6,0.4-4.3,0.4c-3.5,0-5-1-3.9-6.2l3.4-16h-3.5L245.9,19.6z"/>
		<path class="st0" d="M263.1,33.2l-0.3,1.5c-0.8,3.5-1.2,7.9,2.6,7.9c3.7,0,5-4.2,5.3-5.8h4.9c-1.2,5.7-5.4,9.3-11,9.3
			c-4.2,0-9.2-1.2-6.7-13.2c1.4-6.8,4.4-14,12.5-14c7.2,0,8.2,4.3,6.7,11.5l-0.6,2.7H263.1z M272.2,29.6l0.3-1.4
			c0.7-3.3,0.2-5.8-2.7-5.8c-3.3,0-5,3.3-5.8,6.6l-0.1,0.5L272.2,29.6L272.2,29.6z"/>
	</g>
	<g>
		<g>
			<path class="st1" d="M45.5,17.1c0.1,0.5,0.1,1.1,0.1,1.6c0,4.8-2.6,9.3-6.7,11.8c4.5,4.3,7.3,10.2,8.1,16.3L52.2,33H60l3.4-9.1
				h-7.8l0-0.1c2.2-5.7,7.2-7.8,10.5-7l3.8-10.1C55.8,4.4,48.7,11.7,45.5,17.1z"/>
		</g>
		<g>
			<path class="st0" d="M15.7,17.4h10.9c2,0,3.6,1.4,3.6,3.2c0,1.8-1.6,3.2-3.6,3.2H17l-3.6,7.8c0.1,0,0.2,0,0.4,0
				c10.1,0,18.5,7.7,19.6,17.5h12.2c-0.3-7.5-3.8-14.1-9-18.7C41,28.2,44,23.8,44,18.7c0-7.1-5.8-12.8-13-12.8H4.2l0.4,0.4
				L15.7,17.4z"/>
		</g>
	</g>
</g>
</svg>
