<?xml version="1.0" encoding="utf-8"?>

<svg version="1.1" id="Capa_1" xmlns="http://www.w3.org/2000/svg" xmlns:xlink="http://www.w3.org/1999/xlink" x="0px" y="0px"
	 viewBox="0 0 345.4 113.3" enable-background="new 0 0 345.4 113.3" xml:space="preserve">
<title>Slice 1</title>
<desc>Created with Sketch.</desc>
<g>
	<g id="Shape" transform="translate(170.000000, 0.000000)">
		<path fill="#FFFFFF" d="M29.8,24.3c1.7-1.1,3.4-2.3,5-3.4C33.3,21.9,31.6,23.1,29.8,24.3 M43.3,14.5c-5.4,0-9.6,2.9-13.9,5.7
			c1.8-8.9,6.8-12,14.6-12c7.3,0,11.4,2.9,11.4,9.7c0,1.2-0.2,2.8-0.4,3.7l-0.5,3c-1.6,8.9-6.8,12-14.7,12c-5.4,0-9-1.7-10.5-5.2
			c-4.1,3-10,5.3-15.6,5.3C5.3,36.7,0.3,33.6,0.3,25c0-1.7,0.2-3.5,0.5-5.5l0.8-4C4,2.9,10.1,0,20.2,0c2.9,0,7.7,0.5,9.4,1l-1.1,6.3
			c-2.3-0.2-5.7-0.4-8.6-0.4c-5.3,0-8,1.7-9.4,9.4l-0.8,4c-0.3,1.6-0.4,2.9-0.4,3.9c0,4.4,2.3,5.6,6.5,5.6s8.8-2.2,12.8-4.7
			c0.4-0.3,0.8-0.5,1.2-0.8c1.8-1.2,3.5-2.4,5-3.4l1.3-1c0.7-0.5,1.3-0.9,1.9-1.3c-0.2,0.7-0.4,1.4-0.5,2.3l-0.6,2.9
			c-0.2,1.2-0.3,2.1-0.3,3.1c0,2.4,1.1,3.4,3.9,3.4c3.7,0,5-1.7,5.9-6.4L47,21c0.2-1.3,0.3-2.2,0.3-3C47.2,15.7,46.3,14.5,43.3,14.5
			"/>
		<path fill="#FFFFFF" d="M77.5,8.2c-3,0-6.4,0.5-9.5,2.9l0.4-2.2h-7.6l-4.8,27h8.3l3.5-19.5c2.2-0.7,5.6-1.2,8.6-1.2L77.5,8.2
			L77.5,8.2z"/>
		<path fill="#FFFFFF" d="M96.6,8.2c-2.9,0-6.4,0.5-9.5,2.9l0.4-2.2h-7.6l-4.8,27h8.3l3.5-19.5c2.3-0.7,5.6-1.2,8.6-1.2L96.6,8.2
			L96.6,8.2z"/>
		<path fill="#FFFFFF" d="M121.3,18.1c0-5.9-3.2-9.9-11.1-9.9c-7.8,0-13.4,3.3-15,12.7L95,22.3c-0.3,1.7-0.5,3.2-0.5,4.5
			c0,6.8,4.1,9.7,11.9,9.7c4.8,0,8.7-0.7,10.9-1.2l0.9-5.4c-5.1,0.3-7.4,0.5-10.2,0.5c-4.4,0-5.6-1.1-5.6-3.3c0-0.6,0.2-1.4,0.3-2.6
			h17.7C121,21.8,121.3,20,121.3,18.1 M113.5,17.7c0,0.6-0.1,1.5-0.3,2.5h-9.7l0.1-0.4c0.5-2.9,1.7-5.7,5.8-5.7
			C112.6,14.1,113.5,15.6,113.5,17.7"/>
		<path fill="#FFFFFF" d="M150.1,17.9c0-6.7-4.1-9.7-11.4-9.7c-7.8,0-12.9,3.1-14.6,12l-0.5,2.6c-0.3,1.6-0.3,2.9-0.3,4.2
			c0,6.4,3.9,9.7,11.3,9.7c7.9,0,13.1-3.1,14.7-12l0.5-3C150,20.6,150.1,19,150.1,17.9 M141.9,18c0,0.8,0,1.7-0.3,3l-0.6,2.9
			c-1,4.8-2.2,6.4-5.9,6.4c-2.8,0-3.9-0.9-3.9-3.4c0-0.9,0-1.9,0.3-3.1l0.6-2.9c0.9-4.8,2.3-6.4,5.9-6.4
			C141,14.5,141.9,15.7,141.9,18"/>
		<path fill="#FFFFFF" d="M175.4,9.3c-2.1-0.6-5.6-1.1-9.7-1.1c-6.3,0-12.4,1.3-12.4,8.5c0,3.9,2.2,6.2,6.3,7.9l2,0.8
			c2.9,1.2,3.6,1.6,3.6,2.9c0,2.3-2.2,2.7-4.8,2.7c-4,0-5.6-0.3-9.1-0.5l-0.9,5c1.4,0.4,5.7,1,9.5,1c7.7,0,13.5-2.3,13.5-9.3
			c0-3.8-1.9-5.9-6.6-7.7l-2.3-0.9c-2.2-0.9-3.1-1.4-3.1-2.5c0-2.3,2.4-2.4,4.4-2.4s5.3,0.2,8.6,0.5L175.4,9.3L175.4,9.3z"/>
	</g>
	<polygon id="Shape_1_" fill="#FFFFFF" points="47.9,94.8 0,94.8 0,32.1 47.9,32.1 47.9,43.6 11.7,43.6 11.7,58 46.7,58 46.7,69
		11.7,69 11.7,83.2 47.9,83.2 	"/>
	<polygon id="Shape_2_" fill="#FFFFFF" points="55.3,50.6 76.7,72.1 54,94.8 71.6,94.8 94.3,72.1 72.8,50.6 	"/>
	<path fill="#FFFFFF" d="M110,113.3V50.6h10.2l0.7,6.1c3.4-4.9,9.3-7.1,14.3-7.1c13.6,0,22.7,10.1,22.7,23.1
		c0,12.9-8.2,23.1-22.3,23.1c-4.6,0-11.6-1.4-14.7-6.3v23.7H110V113.3z M147,72.8c0-6.9-4.7-12.6-12.6-12.6s-12.5,5.6-12.5,12.6
		c0,6.9,5.1,12.5,12.5,12.5C141.9,85.3,147,79.7,147,72.8L147,72.8z"/>
	<path fill="#FFFFFF" d="M176.6,50.6l0.8,5.1c3.4-5.5,8-6.3,12.5-6.3c4.6,0,9,1.8,11.4,4.2l-4.9,9.5c-2.2-1.9-4.3-2.9-7.9-2.9
		c-5.7,0-11,3.1-11,11.2v23.3h-11V50.6H176.6L176.6,50.6z"/>
	<path fill="#FFFFFF" d="M216,76.6c0.7,5.5,5.5,9.4,13.2,9.4c4,0,9.3-1.5,11.8-4.1l7,6.9c-4.7,4.8-12.3,7.2-19,7.2
		c-15.2,0-24.3-9.4-24.3-23.6c0-13.4,9.1-23.1,23.5-23.1c14.8,0,24,9.1,22.3,27.3L216,76.6L216,76.6z M240,67.6
		c-0.7-5.7-5.2-8.6-11.5-8.6c-5.9,0-10.8,2.9-12.4,8.6H240L240,67.6z"/>
	<path fill="#FFFFFF" d="M289.7,62.4c-3.1-3-6.7-3.9-10.9-3.9c-5.2,0-8.1,1.6-8.1,4.4c0,2.9,2.6,4.5,8.2,4.8
		c8.3,0.5,18.9,2.4,18.9,14.2c0,7.8-6.4,14.5-19,14.5c-7,0-14-1.2-20.4-7.9l5.4-7.8c3.1,3.5,10.3,6.1,15.2,6.2c4.1,0.1,8-2.1,8-5.3
		c0-3.1-2.5-4.3-8.8-4.7c-8.3-0.6-18.3-3.7-18.3-13.7c0-10.2,10.6-13.8,18.7-13.8c6.9,0,12.1,1.3,17.2,5.8L289.7,62.4L289.7,62.4z"
		/>
	<path fill="#FFFFFF" d="M335.5,62.4c-3.1-3-6.7-3.9-10.9-3.9c-5.2,0-8.1,1.6-8.1,4.4c0,2.9,2.6,4.5,8.3,4.8
		c8.3,0.5,18.9,2.4,18.9,14.2c0,7.8-6.4,14.5-19,14.5c-7,0-14-1.2-20.4-7.9l5.4-7.8c3.1,3.5,10.3,6.1,15.2,6.2c4.1,0.1,8-2.1,8-5.3
		c0-3.1-2.5-4.3-8.8-4.7c-8.3-0.6-18.3-3.7-18.3-13.7c0-10.2,10.6-13.8,18.6-13.8c6.9,0,12.1,1.3,17.2,5.8L335.5,62.4L335.5,62.4z"
		/>

		<rect id="Rectangle-path" x="88.138" y="57.102" transform="matrix(0.7071 -0.7071 0.7071 0.7071 -17.1301 85.2476)" fill="#FFFFFF" width="12.4" height="12.4"/>

		<rect id="Rectangle-path_1_" x="88.117" y="74.692" transform="matrix(0.7071 -0.7071 0.7071 0.7071 -29.5747 90.3846)" fill="#FFFFFF" width="12.4" height="12.4"/>
</g>
</svg>
