<?xml version="1.0" encoding="utf-8"?>
<!-- Generator: Adobe Illustrator 22.0.0, SVG Export Plug-In . SVG Version: 6.00 Build 0)  -->
<svg version="1.1" id="Capa_1" xmlns="http://www.w3.org/2000/svg" xmlns:xlink="http://www.w3.org/1999/xlink" x="0px" y="0px"
	 viewBox="0 0 276.7 34.02" enable-background="new 0 0 276.7 34.02" xml:space="preserve">
<g id="facil_1_">
	<g>
		<path fill="#FF6A00" d="M211.54,11.69h-3.78c0.37-1.76,0.97-2.32,2.43-2.32c0.86,0,1.49,0.04,1.98,0.11l1.05-4.9
			c-1.31-0.07-2.58-0.18-3.89-0.18c-5.8,0-7.82,1.57-8.98,7.29h-2.99l-1.01,4.56h3.07l-3.07,14.85h7.41l3.07-14.85h3.74
			L211.54,11.69z"/>
	</g>
	<g>
		<path fill="#FF6A00" d="M221.56,11.21c-4.75,0-8.75,1.19-9.91,6.36h6.96c0.41-1.46,1.46-1.98,2.95-1.98
			c1.12,0,2.32,0.34,2.32,1.68c0,2.39-3.33,2.09-5.43,2.25c-5.57,0.41-9.39,1.79-9.39,6.92c0,3.7,2.96,5.16,6.29,5.16
			c2.17,0,4.68-0.78,5.98-2.36h0.07c-0.04,0.63,0.07,1.27,0.26,1.87h7.26c-0.19-0.44-0.3-1.01-0.3-1.72c0-1.27,2.36-9.99,2.36-13.02
			C230.99,11.65,225.08,11.21,221.56,11.21z M218.83,27.22c-1.2,0-2.36-0.34-2.36-1.68c0-1.42,1.16-2.06,2.39-2.17
			c1.35-0.11,2.73-0.26,3.93-0.86C222.35,25.38,221.34,27.22,218.83,27.22z"/>
	</g>
	<g>
		<path fill="#FF6A00" d="M242.47,26.2c-2.13,0-2.54-1.72-2.54-3.55s0.86-6.06,4.08-6.06c0.86,0,1.49,0.15,1.87,0.56
			c0.41,0.37,0.56,0.97,0.52,1.91h7.11c0.11-5.42-3.89-7.85-9.28-7.85c-7.4,0-11.71,4.9-11.71,11.52c0,3.63,1.65,8.86,9.88,8.86
			c5.61,0,9.16-2.69,10.44-8.23h-7.11C245.31,24.45,244.49,26.2,242.47,26.2z"/>
	</g>
	<g>
		<polygon fill="#FF6A00" points="265.85,4.4 258.44,4.4 257.36,9.6 264.76,9.6 		"/>
	</g>
	<g>
		<polygon fill="#FF6A00" points="256.95,11.69 252.9,31.1 260.31,31.1 264.35,11.69 		"/>
	</g>
	<g>
		<polygon fill="#FF6A00" points="269.29,4.4 263.76,31.1 271.16,31.1 276.7,4.4 		"/>
	</g>
	<g>
		<path fill="#FF6A00" d="M32.55,8.84c0.05,0.42,0.08,0.84,0.08,1.28c0,3.81-2.05,7.35-5.32,9.32c3.53,3.43,5.79,8,6.4,12.87
			l4.1-10.89h6.16l2.72-7.18h-6.17l-0.03-0.06c1.74-4.53,5.71-6.16,8.31-5.53l3.01-7.95C40.7-1.19,35.1,4.61,32.55,8.84z"/>
	</g>
</g>
<g id="recambio_1_">
	<path fill="#FFFFFF" d="M80.99,11.51c1.04-4.95-1.55-6.8-5.25-6.8h-9.32L60.8,31.1h4.22l2.44-11.46h3.44
		c2.88,0,3.51,1.26,2.96,4.14c-0.33,1.92-0.67,3.4-0.89,4.99c-0.11,1.03-0.07,1.85,0.22,2.33h4.77c-0.48-0.37-0.96-1-0.78-2.29
		c0.26-1.59,0.67-3.66,1-5.36c0.63-3.7-0.4-5.14-2.99-5.4v-0.07C78.18,17.54,80.25,14.91,80.99,11.51z M71.49,16.47h-3.36l1.81-8.58
		h3.59c2.77,0,3.7,1.48,3.11,4.29C76.08,14.84,74.19,16.47,71.49,16.47z"/>
	<path fill="#FFFFFF" d="M90.31,10.7c-6.25,0-8.54,5.55-9.65,10.76c-1.92,9.21,1.89,10.17,5.14,10.17c4.33,0,7.58-2.77,8.5-7.17
		h-3.77c-0.26,1.18-1.26,4.44-4.1,4.44c-3,0-2.62-3.4-2.04-6.07l0.22-1.15H95l0.44-2.11C96.63,14.02,95.85,10.7,90.31,10.7z
		 M91.82,17.87l-0.22,1.07h-6.4l0.07-0.41c0.55-2.59,1.89-5.1,4.44-5.1C91.97,13.43,92.38,15.35,91.82,17.87z"/>
	<path fill="#FFFFFF" d="M102.55,28.61c-2.89,0-2.74-3.11-1.81-7.51c0.92-4.4,2.11-7.51,4.99-7.51c2.37-0.07,2.37,2.33,1.96,4.18
		h3.99c0.56-2.48,0.67-7.21-5.32-7.14c-5.77,0-8.28,4.29-9.61,10.46c-1.29,6.17-0.59,10.46,5.18,10.46c4.92,0,7.17-2.99,8.47-7.76
		h-3.77C105.95,26.8,104.77,28.65,102.55,28.61z"/>
	<path fill="#FFFFFF" d="M127.25,15.58c0.74-3.52-1.78-4.88-5.29-4.88c-5.25,0-7.47,2.33-8.36,6.55h3.77
		c0.4-1.93,1.18-3.81,3.85-3.81c2.11,0,2.48,1.15,2.11,2.96c-0.37,1.74-1.37,2.14-2.89,2.55l-3.29,0.85
		c-2.89,0.89-4.99,1.81-5.96,6.25c-0.81,3.81,0.81,5.58,3.99,5.58c2.33,0,4.1-0.96,5.58-2.92h0.07c-0.29,1.92,1.04,2.63,2.81,2.63
		c0.78,0,1.51-0.26,2.03-0.48l0.55-2.59c-0.15,0.07-0.4,0.11-0.67,0.11c-0.59,0-0.89-0.67-0.74-1.4L127.25,15.58z M121.7,23.93
		c-0.63,2.92-2.18,4.73-4.58,4.73c-1.66,0-2.18-1.33-1.85-2.99c0.33-1.48,1.07-2.66,2.33-3.22c1.29-0.55,3.62-1.03,4.81-1.85
		L121.7,23.93z"/>
	<path fill="#FFFFFF" d="M149.91,10.7c-2.4,0-4.1,1.11-5.66,3.03c-0.26-1.66-1.15-3.03-3.99-3.03c-1.89,0-3.99,1.07-5.36,2.85h-0.11
		l0.48-2.33h-3.77l-4.21,19.89h3.99l2.85-13.35c0.55-2.59,2.37-3.88,3.96-3.88c1.66,0,2.22,1,1.66,3.59l-2.88,13.64h3.99l2.85-13.35
		c0.56-2.59,2.37-3.88,3.99-3.88c1.63,0,2.18,1,1.63,3.59l-2.88,13.64h3.99l3.22-15.12C154.46,12.14,152.72,10.7,149.91,10.7z"/>
	<path fill="#FFFFFF" d="M166.44,10.7c-2.15,0-3.99,1.07-5.1,2.85h-0.07l1.88-8.84h-3.99l-5.62,26.4h3.77l0.52-2.44h0.07
		c0.26,1.3,0.89,2.96,3.74,2.96c4.66,0,7.32-3.88,8.8-10.72C172.28,12.06,169.47,10.7,166.44,10.7z M166.18,21.09
		c-0.96,4.51-2.18,7.35-4.95,7.35c-2.74,0-2.77-2.81-1.85-7.06c1-4.77,2.14-7.51,5.21-7.51C166.88,13.88,167.29,15.73,166.18,21.09z
		"/>
	<polygon fill="#FFFFFF" points="180.23,4.41 176.24,4.41 175.42,8.4 179.41,8.4 	"/>
	<polygon fill="#FFFFFF" points="174.79,11.22 170.58,31.1 174.57,31.1 178.79,11.22 	"/>
	<path fill="#FFFFFF" d="M188.62,10.7c-5.77,0-8.28,4.29-9.61,10.46c-1.29,6.17-0.33,10.46,5.18,10.46c5.55,0,8.35-4.29,9.65-10.46
		C195.17,14.98,194.43,10.7,188.62,10.7z M189.84,21.16c-1.07,5.06-2.11,7.5-5.03,7.5c-2.88,0-2.88-2.44-1.81-7.5
		c0.93-4.4,2.11-7.51,4.99-7.51C190.91,13.65,190.76,16.76,189.84,21.16z"/>
	<path fill="#FFFFFF" d="M25.52,19.26c3.47-1.62,5.89-5.12,5.89-9.15C31.4,4.55,26.8,0,21.17,0H0l0.31,0.31l8.75,8.75h8.57
		c1.54,0,2.8,1.14,2.8,2.53s-1.26,2.53-2.8,2.53h-7.51l-2.85,6.11c0.1,0,0.19-0.01,0.29-0.01c7.99,0,14.56,6.04,15.42,13.8h9.65
		C32.37,28.14,29.67,22.89,25.52,19.26z"/>
</g>
</svg>
