<?xml version="1.0" encoding="utf-8"?>
<!-- Generator: Adobe Illustrator 22.0.0, SVG Export Plug-In . SVG Version: 6.00 Build 0)  -->
<svg version="1.1" id="Capa_1" xmlns="http://www.w3.org/2000/svg" xmlns:xlink="http://www.w3.org/1999/xlink" x="0px" y="0px"
	 viewBox="0 0 334.01 90.918" enable-background="new 0 0 334.01 90.918" xml:space="preserve">
<title>Slice 1</title>
<desc>Created with Sketch.</desc>
<g>
	<path id="Shape" fill="#FFFFFF" d="M181.9,1.508c4.54-1.46,9.39-1.78,14.09-1.3c4.54,0.49,9.07,2.27,11.82,5.99
		c1.94,2.43,2.59,5.51,2.92,8.58c-4.54,0.16-8.91,0-13.28,0c-0.32-1.13-0.32-2.43-1.3-3.08c-1.62-1.3-3.89-1.62-5.83-1.62
		c-1.62-0.16-3.73,0.49-4.37,2.11c-0.32,1.46,0.49,2.92,1.78,3.73c1.46,0.97,3.08,1.13,4.7,1.62c5.02,0.97,10.37,1.94,14.9,4.54
		c2.92,1.62,4.7,4.54,5.35,7.61c0.97,5.02-1.3,10.53-5.35,13.77c-3.24,2.59-7.29,3.73-11.18,4.37c-5.35,0.65-10.85,0.16-15.87-1.94
		c-3.56-1.62-6.8-4.21-8.42-7.94c-0.97-2.11-1.13-4.21-1.3-6.48h14.09c0.49,2.11,0.81,4.86,3.24,5.67c2.75,0.81,5.83,0.81,8.26-0.32
		c2.11-0.81,3.08-4.05,1.13-5.51c-2.43-1.62-5.51-1.94-8.26-2.75c-4.86-1.46-10.2-2.43-13.77-6.16c-3.4-3.56-3.73-9.07-1.94-13.44
		C174.61,5.558,178.18,2.808,181.9,1.508L181.9,1.508z"/>
	<path id="Shape_1_" fill="#FFFFFF" d="M213.81,1.508h33.53v10.69h-19.92v6.8h19.11v10.04h-19.11v6.48h20.41v10.85h-34.02
		C213.81,31.478,213.81,16.578,213.81,1.508L213.81,1.508z"/>
	<path id="Shape_2_" fill="#FFFFFF" d="M250.1,1.508h13.28v25.59c0,2.43-0.16,5.02,1.13,7.13c1.13,1.94,3.4,2.75,5.67,2.75
		c2.11,0,4.54-0.16,5.99-1.78c1.62-1.78,1.62-4.37,1.62-6.64V1.508h13.28v25.43c0,3.89-0.16,8.1-1.94,11.66
		c-2.27,4.21-6.48,7.13-11.18,8.1c-4.86,1.13-9.88,0.97-14.74,0c-4.7-1.13-9.23-4.05-11.34-8.58c-1.46-3.08-1.78-6.48-1.78-9.88
		C249.93,19.648,250.1,10.578,250.1,1.508L250.1,1.508z"/>
	<path id="Shape_3_" fill="#FFFFFF" d="M293.67,1.508h24.78c4.21,0,8.91,0.97,11.99,4.05c3.24,3.56,3.4,8.91,2.27,13.28
		c-0.97,3.24-3.56,5.99-6.8,6.8c1.62,0.49,3.24,0.97,4.54,1.94c1.62,1.3,2.11,3.24,2.43,5.18c0.49,4.54,0.65,9.23,1.13,13.77h-13.93
		c0-3.56-0.16-6.97-0.32-10.53c-0.16-2.27-1.62-4.54-3.89-5.18c-2.92-0.81-5.83-0.32-8.75-0.32c-0.16,5.35,0,10.69-0.16,16.04
		h-13.12C293.51,31.478,293.51,16.578,293.67,1.508L293.67,1.508z M306.79,11.388v9.56c3.73-0.16,7.61,0.65,11.01-0.97
		c3.4-1.46,3.08-7.29-0.49-8.26C313.75,11.068,310.19,11.548,306.79,11.388L306.79,11.388z"/>
	<path id="Shape_4_" fill="#FFFFFF" d="M0,1.668h27.21v45.19H0V1.668L0,1.668z"/>
	<path id="Shape_5_" fill="#FFFFFF" d="M27.21,1.668h40.17v45.19H27.21C27.21,31.638,27.21,16.578,27.21,1.668L27.21,1.668z"/>
	<path id="Shape_6_" fill="#FFFFFF" d="M67.38,1.668H161v45.19H67.38C67.38,31.638,67.38,16.578,67.38,1.668L67.38,1.668z"/>
	<path id="Shape_7_" fill="#FFFFFF" d="M214.78,67.278c4.05-2.27,8.26-4.54,12.31-6.64c4.05,2.27,8.26,4.37,12.31,6.64
		c-2.92,1.78-5.99,3.4-8.91,5.18c0.32,0.65,0.49,1.46,1.3,1.78c2.92-1.3,5.51-3.08,8.26-4.7v13.93c-4.37,2.43-8.42,5.18-12.96,7.45
		c-3.89-1.78-7.45-4.37-11.18-6.32c-0.65-0.49-1.78-0.81-1.78-1.78c-0.16-4.37,0-8.75,0-13.28c3.89,2.27,7.77,4.54,11.66,6.8v10.69
		h2.27v-11.98C223.69,72.458,219.16,69.868,214.78,67.278L214.78,67.278z"/>
	<path id="Shape_8_" fill="#FFFFFF" d="M255.76,67.278h2.92v15.71c-2.59,0.32-5.51,0.81-7.94-0.32c-3.73-1.78-3.73-7.94-0.16-10.04
		c1.62-0.97,3.4-0.81,5.18-0.65V67.278L255.76,67.278z M252.36,74.888c-1.62,0.97-1.78,3.73-0.49,5.02
		c0.97,0.97,2.59,0.81,3.89,0.81v-6.16C254.63,74.728,253.33,74.398,252.36,74.888L252.36,74.888z"/>
	<path id="Shape_9_" fill="#FFFFFF" d="M279.9,67.278h2.92v15.71c-2.59,0.32-5.51,0.81-7.94-0.32c-3.73-1.78-3.73-8.1-0.16-10.04
		c1.62-0.97,3.4-0.81,5.18-0.65V67.278L279.9,67.278z M276.5,74.888c-1.78,0.97-1.78,3.73-0.49,5.02c0.97,0.97,2.59,0.81,3.89,0.81
		v-6.16C278.77,74.728,277.47,74.398,276.5,74.888L276.5,74.888z"/>
	<path id="Shape_10_" fill="#FFFFFF" d="M260.3,72.778c2.59-0.65,5.67-1.46,8.1,0c3.08,1.62,3.4,6.16,1.3,8.75
		c-1.13,1.46-3.24,1.78-5.02,1.94v-2.43c0.97-0.49,2.43-0.65,2.92-1.62c0.65-1.3,0.65-3.08-0.65-4.05
		c-1.13-0.81-2.59-0.49-3.73-0.49v12.8h-2.92V72.778L260.3,72.778z"/>
	<path id="Shape_11_" fill="#FFFFFF" d="M288.16,72.938c1.94-1.13,4.21-0.81,6.32-0.32c0,3.73,0.16,7.45,0,11.01
		c-0.16,3.89-5.67,4.86-8.1,2.43c1.78,0.16,3.89,0.97,5.67,0c1.3-0.65,1.62-2.27,1.94-3.4c-1.94,0.32-3.89,0.65-5.67-0.32
		C284.6,80.718,284.6,74.728,288.16,72.938L288.16,72.938z M288.48,73.748c-2.75,1.62-2.75,6.48,0.16,7.94
		c1.62,0.81,3.4,0.49,5.02,0.32c0.16-2.92,0-5.83,0-8.91C291.89,73.108,289.94,72.778,288.48,73.748L288.48,73.748z"/>
	<path id="Shape_12_" fill="#FFFFFF" d="M297.88,73.268c1.62-0.97,3.89-1.13,5.67-0.32c-1.94,0.49-5.02-0.32-5.83,2.11
		c-0.49,2.92,0.16,5.83-0.32,8.75c-0.97-1.78-0.49-3.89-0.65-5.83C296.91,76.508,296.42,74.398,297.88,73.268L297.88,73.268z"/>
	<path id="Shape_13_" fill="#FFFFFF" d="M306.46,72.458c1.94-0.65,4.37,0,5.67,1.78c1.46,2.27,1.46,5.51-0.49,7.45
		c-1.78,1.78-4.86,1.94-6.8,0.32C301.77,79.588,302.41,73.588,306.46,72.458L306.46,72.458z M305.98,73.428
		c-2.59,1.46-2.92,5.18-1.13,7.45c1.46,1.78,4.54,1.94,6.16,0.16c1.62-1.62,1.62-4.37,0.49-6.32
		C310.35,72.938,307.76,72.618,305.98,73.428L305.98,73.428z"/>
	<path id="Shape_14_" fill="#FFFFFF" d="M321.69,72.458h0.81v10.37c-2.27,0.32-4.86,0.81-6.8-0.49c-1.62-1.3-0.97-3.56-1.13-5.35
		c0.16-1.78-0.32-3.56,0.65-5.18c0.49,2.92,0,5.83,0.32,8.58c0.97,2.43,4.05,1.78,6.16,1.78
		C321.69,78.938,321.69,75.698,321.69,72.458L321.69,72.458z"/>
	<path id="Shape_15_" fill="#FFFFFF" d="M324.77,72.778c2.11-0.49,4.54-0.81,6.48,0.16c2.75,1.46,3.08,5.18,1.78,7.61
		c-1.13,2.11-3.56,2.59-5.83,2.59v-0.81c1.46-0.16,3.24-0.16,4.37-1.3c1.94-2.11,1.94-6.16-0.81-7.61c-1.62-0.81-3.4-0.49-5.02-0.32
		v14.1h-0.81C324.77,82.338,324.77,77.638,324.77,72.778L324.77,72.778z"/>
</g>
</svg>
