<?xml version="1.0" encoding="utf-8"?>
<!-- Generator: Adobe Illustrator 22.0.0, SVG Export Plug-In . SVG Version: 6.00 Build 0)  -->
<svg version="1.1" id="Capa_1" xmlns="http://www.w3.org/2000/svg" xmlns:xlink="http://www.w3.org/1999/xlink" x="0px" y="0px"
	 viewBox="0 0 332.982 50.655" enable-background="new 0 0 332.982 50.655" xml:space="preserve">
<title>Slice 1</title>
<desc>Created with Sketch.</desc>
<g>
	<path fill="#FFFFFF" d="M51.798,18.458c3.115-2.287,5.333-4.953,9.344-5.252c6.206-0.483,8.459,4.988,8.344,7.309l-10.999,7.999
		c0.046-2.333-0.713-4.528-3.023-4.735c-3.298-0.299-5.39,1.931-6.103,4.735H37.88l3.609-14.803l11.642-0.023L51.798,18.458z
		 M47.914,34.33l-3.988,15.883l-11.32-0.034l3.862-15.849C36.468,34.33,47.914,34.33,47.914,34.33z"/>
	<path fill="#FFFFFF" d="M13.573,11.149H0L2.345,1.104h39.673l-2.77,10.045H26.227l-4.045,17.366H9.516L13.573,11.149z
		 M20.825,34.33l-3.689,15.849H4.471L8.16,34.33H20.825z"/>
	<path fill="#FFFFFF" d="M131.984,18.975c6.206-6.792,16.147-9.056,19.975-3.287c1.597,2.413,0.655,7.781-0.632,12.826h-12.148
		c0.333-3.275-0.126-6.493-3.482-6.022c-3.08,0.437-4.712,3.092-5.758,6.022h-11.757l3.528-14.837l11.654-0.057L131.984,18.975z
		 M149.717,34.33c-0.299,1.069-0.563,2.046-0.77,2.85l-3.149,12.883l-11.792,0.057c0.701-2.954,2.735-9.872,4.08-15.791
		L149.717,34.33L149.717,34.33z M128.294,34.33c-1.747,6.39-3.413,13.366-4.057,15.895l-11.24,0.069l3.804-15.964H128.294z"/>
	<path fill="#FFFFFF" d="M174.829,25.572c1.506,0.448,3.999,0.793,5.494,1.276c1.276,0.414,2.563,0.885,3.724,1.563
		c0.057,0.034,0.126,0.069,0.184,0.103h-24.468c-0.414-1.034-0.575-2.218-0.391-3.597c2.482-13.757,29.927-16.676,33.203-3.574
		l-11.217,2.885c-0.057-1.103-0.724-3.298-3.229-3.988c-0.724-0.195-1.517-0.264-2.253-0.23c-0.782,0.023-1.494,0.161-2.011,0.379
		C171.68,21.274,170.588,24.308,174.829,25.572L174.829,25.572z M188.218,34.33c0.667,4.091-1.816,8.447-5.08,11.228
		c-9.723,8.263-28.261,5.999-30.341-3.333l10.734-2.931c3.161,7.643,15.722,1.368,9.401-2.149c-1.781-0.988-3.977-1.85-6.08-2.816
		h21.366V34.33z"/>
	<path fill="#FFFFFF" d="M217.49,10.953h-16.251l2.758-9.895h33.904l-21.457,27.456h-12.619L217.49,10.953z M211.905,34.33
		l-3.298,4.218l19.549,0.195l-2.793,11.458h-38.409l12.355-15.872L211.905,34.33L211.905,34.33z"/>
	<path fill="#FFFFFF" d="M254.716,45.455c-3.459,3.138-6.712,4.884-12.493,4.942c-2.563,0.034-5.022-0.529-6.827-1.988
		c-2.299-2.528-1.954-6.631-1.414-9.884c0.172-1.011,0.368-2.011,0.575-3.011c0.092-0.391,0.172-0.793,0.264-1.184h12.067
		c-0.299,3.574,0.218,6.31,2.356,6.815c2.391,0.563,4.953-1.448,6.896-5.264c0.207-0.414,0.425-0.942,0.667-1.552h12.447
		L265.3,50.258h-11.918L254.716,45.455z M236.304,28.514c1.391-4.999,3.057-10.125,4.425-14.86h11.458
		c-0.655,2.287-2.977,8.769-4.344,14.86H236.304z M258.635,28.514c1.483-5.321,2.942-11.746,3.597-14.86h12.148l-3.689,14.86
		H258.635z"/>
	<polygon fill="#FFFFFF" points="321.65,0 332.982,0 330.833,9.333 319.374,9.333 	"/>
	<path fill="#FFFFFF" d="M318.202,13.608h11.493l-3.609,14.906h-11.481L318.202,13.608z M324.695,34.33l-3.827,15.826h-11.481
		l3.816-15.826C313.203,34.33,324.695,34.33,324.695,34.33z"/>
	<path fill="#FFFFFF" d="M95.655,26.445c-0.977-3.643-5.195-4.482-8.781-3.08c-2.356,0.919-4.091,2.931-5.172,5.149h-10.63
		c1.448-3.724,3.586-7.126,5.988-9.344c6.103-5.654,17.239-8.562,22.4-0.713l1.241-4.701h10.7l-3.425,14.757H95.897
		C95.908,27.802,95.827,27.101,95.655,26.445L95.655,26.445z M80.404,34.33c0.471,6.666,9.47,6.815,13.63,0.218
		c0.046-0.069,0.092-0.149,0.138-0.218h12.47l-3.666,15.791L91.61,50.178l1.425-5.425c-4.425,3.919-10.286,5.815-15.136,5.183
		c-3.873-0.506-7.103-2.356-8.424-8.022c-0.54-2.287-0.506-4.919-0.046-7.585h10.975V34.33z"/>
	<path fill="#FFFFFF" d="M293.354,17.975c3.115-2.287,5.333-4.953,9.344-5.264c6.218-0.471,8.459,4.999,8.344,7.309l-10.999,8.01
		c0.046-2.333-0.701-4.528-3.011-4.735c-3.31-0.299-5.402,1.931-6.103,4.747l-0.126,0.471h-11.481l3.724-15.297l11.654-0.011
		L293.354,17.975z M289.355,34.33l-3.862,15.4l-11.332-0.034l3.747-15.366C277.908,34.33,289.355,34.33,289.355,34.33z"/>
</g>
</svg>
