<?xml version="1.0" encoding="utf-8"?>

<svg version="1.1" id="Capa_1" xmlns="http://www.w3.org/2000/svg" xmlns:xlink="http://www.w3.org/1999/xlink" x="0px" y="0px"
	 viewBox="0 0 333.001 88.431" enable-background="new 0 0 333.001 88.431" xml:space="preserve">
<title>Slice 1</title>
<desc>Created with Sketch.</desc>
<path fill="#FFFFFF" d="M22.834,87.906c-6.823,0-13.12-2.624-17.057-7.61c-4.461-4.986-6.56-11.808-5.511-18.893
	C1.84,46.708,14.961,34.637,29.131,34.637c7.347,0,13.908,2.887,17.581,7.872c4.723,5.773,6.035,14.17,3.936,23.617H12.863v0.525
	c1.05,5.773,5.511,9.447,11.284,9.447c4.723,0,8.922-2.099,11.284-5.773h13.645C44.877,81.346,34.643,87.906,22.834,87.906
	 M27.558,46.708c-5.511,0-10.759,3.411-13.383,8.922l-0.262,0.525h24.928V55.63C38.054,49.857,33.593,46.708,27.558,46.708"/>
<path fill="#FFFFFF" d="M85.025,87.382l3.674-29.652c0.262-2.887,0.262-9.447-7.872-9.447c-5.511,0-9.709,3.936-10.496,9.447
	L66.92,87.382H53.011l6.298-50.645h13.12l-0.525,4.199c3.674-3.674,8.397-5.511,13.12-5.511c12.071,0,18.631,9.184,17.057,22.305
	l-3.674,29.652H85.025"/>
<polygon fill="#FFFFFF" points="116.776,87.382 103.656,36.474 118.089,36.474 125.698,72.687 142.23,36.474 156.663,36.474
	130.947,87.382 "/>
<polygon fill="#FFFFFF" points="153.251,87.382 159.287,36.474 173.194,36.474 166.896,87.382 "/>
<path fill="#FFFFFF" d="M196.286,88.431c-13.645,0-22.83-11.808-20.73-26.503c1.837-14.957,13.908-26.503,27.29-26.503
	c5.773,0,10.759,2.099,14.17,5.773l0.525-4.723h13.383l-6.298,50.645h-13.383l0.525-4.723
	C207.57,86.332,202.059,88.431,196.286,88.431 M203.371,48.02c-6.823,0-13.12,6.035-14.17,13.908
	c-1.05,7.61,3.674,13.645,10.759,13.645c6.823,0,13.12-6.035,14.17-13.645C214.917,54.318,210.194,48.02,203.371,48.02"/>
<polygon fill="#FFFFFF" points="233.023,87.382 241.945,14.17 255.853,14.17 246.931,87.382 "/>
<polygon fill="#FFFFFF" points="255.328,87.382 261.363,36.474 275.271,36.474 268.973,87.382 "/>
<polygon fill="#FFFFFF" points="262.413,27.028 264.25,14.17 277.895,14.17 276.321,27.028 "/>
<path fill="#FFFFFF" d="M298.363,88.431c-13.645,0-22.83-11.808-20.993-26.503c1.837-14.957,13.908-26.503,27.553-26.503
	c5.773,0,10.759,2.099,14.17,5.773l0.525-4.723h13.383l-6.298,50.645h-13.12l0.525-4.723
	C309.647,86.332,304.136,88.431,298.363,88.431 M305.448,48.02c-7.085,0-13.12,6.035-14.17,13.908
	c-1.05,7.61,3.674,13.645,10.759,13.645c6.823,0,13.12-6.035,14.17-13.645C316.994,54.318,312.271,48.02,305.448,48.02"/>
<path fill="#FFFFFF" d="M226.201,0c1.312,1.05,1.837,2.362,2.099,3.674c0.525,7.61-17.581,17.057-40.673,21.255
	c-10.496,1.837-19.681,2.362-27.29,1.837c7.872,2.624,21.255,3.149,36.475,0.787c23.617-3.674,43.035-12.596,42.773-19.943
	C239.846,3.936,234.598,1.312,226.201,0"/>
</svg>
