<?xml version="1.0" encoding="utf-8"?>

<svg version="1.1" id="Capa_1" xmlns="http://www.w3.org/2000/svg" xmlns:xlink="http://www.w3.org/1999/xlink" x="0px" y="0px"
	 viewBox="0 0 47.7 32.8" enable-background="new 0 0 47.7 32.8" xml:space="preserve">
<g>
	<path fill="#FF6A00" d="M45.2,7.6c0.9,0.9,1.5,2,1.9,3.3s0.6,2.8,0.6,4.4v12.4c0,0.3-0.1,0.6-0.4,0.8s-0.5,0.4-0.8,0.4h-3.6
		c-0.2,1.1-0.7,2.1-1.6,2.8c-0.9,0.7-1.9,1.1-3.1,1.1s-2.2-0.4-3-1.1c-0.9-0.7-1.4-1.7-1.6-2.8H15.3c-0.2,1.1-0.7,2.1-1.6,2.8
		s-1.9,1.1-3,1.1c-1.2,0-2.2-0.4-3.1-1.1C6.7,30.9,6.2,30,6,28.8H1.2c-0.3,0-0.6-0.1-0.8-0.4S0,28,0,27.7V1.2c0-0.3,0.1-0.6,0.4-0.8
		S0.9,0,1.2,0h29.9c0.4,0,0.6,0.1,0.9,0.4s0.4,0.5,0.4,0.8v3.7H39c1.3,0,2.4,0.2,3.5,0.7S44.5,6.7,45.2,7.6z M2.4,2.4v24.1h3.8
		c0.3-0.9,0.9-1.7,1.7-2.3c0.8-0.6,1.7-0.9,2.8-0.9c1,0,1.9,0.3,2.7,0.9s1.4,1.3,1.7,2.3h14.8V2.4H2.4z M10.7,30.4
		c0.6,0,1.2-0.2,1.6-0.7c0.4-0.4,0.7-1,0.7-1.6c0-0.7-0.2-1.2-0.7-1.7c-0.4-0.4-1-0.7-1.6-0.7c-0.7,0-1.2,0.2-1.7,0.7
		c-0.4,0.4-0.7,1-0.7,1.7c0,0.6,0.2,1.2,0.7,1.6C9.4,30.1,10,30.4,10.7,30.4z M45.4,26.4V15.2c0-2.5-0.6-4.4-1.8-5.8
		s-2.8-2.1-4.8-2.1h-6.6v19.2h1.6c0.3-0.9,0.9-1.6,1.7-2.2s1.7-0.9,2.8-0.9c1,0,1.9,0.3,2.8,0.9s1.4,1.3,1.7,2.2L45.4,26.4
		L45.4,26.4z M38.4,30.4c0.7,0,1.2-0.2,1.7-0.7c0.4-0.4,0.7-1,0.7-1.6c0-0.7-0.2-1.2-0.7-1.7c-0.5-0.4-1-0.7-1.7-0.7
		c-0.6,0-1.2,0.2-1.6,0.7c-0.5,0.4-0.7,1-0.7,1.7c0,0.6,0.2,1.2,0.7,1.6C37.2,30.1,37.8,30.4,38.4,30.4z"/>
</g>
</svg>
