<?xml version="1.0" encoding="utf-8"?>

<svg version="1.1" id="Capa_1" xmlns="http://www.w3.org/2000/svg" xmlns:xlink="http://www.w3.org/1999/xlink" x="0px" y="0px"
	 viewBox="0 0 46.376 46" enable-background="new 0 0 46.376 46" xml:space="preserve">
<g>
	<path fill="#FF6A00" d="M0,1.313c0-0.187,0-0.281,0-0.469s0.093-0.281,0.188-0.375c0.093-0.188,0.188-0.281,0.375-0.375
		C0.751,0,0.939,0,1.126,0C1.22,0,1.314,0,1.408,0.093c0.093,0,0.188,0.093,0.281,0.093l9.754,6.237
		c0.188,0.093,0.281,0.188,0.375,0.281c0.093,0.093,0.188,0.281,0.188,0.375l1.453,5.439l24.337-6.706h0.093h0.093
		c0.281,0,0.469,0.093,0.798,0.188c0.188,0.188,0.375,0.375,0.469,0.563l7.033,25.556c0.093,0.188,0.093,0.375,0.093,0.469
		c0,0.188-0.093,0.281-0.188,0.469c-0.093,0.093-0.188,0.188-0.281,0.281c-0.093,0.093-0.281,0.188-0.375,0.281L26.118,38.92
		l0.093,0.093c0.093,1.548-0.281,2.907-1.266,4.174c-0.891,1.266-2.063,2.063-3.611,2.532c-0.281,0.093-0.563,0.093-0.891,0.188
		c-0.281,0-0.61,0.093-0.891,0.093c-1.453,0-2.814-0.469-3.986-1.36s-1.97-2.063-2.344-3.423c-0.375-1.453-0.281-2.907,0.281-4.361
		c0.563-1.453,1.641-2.439,3.001-3.235h0.093L9.751,8.019L0.375,1.97C0.188,1.876,0.093,1.783,0,1.689C0.093,1.595,0,1.408,0,1.313
		L0,1.313z M14.208,14.866l4.971,18.101h0.093c1.266-0.093,2.532,0.188,3.611,0.891c1.172,0.703,1.97,1.548,2.626,2.72v0.093
		L43.75,31.7L37.42,8.488C29.589,10.457,21.946,12.708,14.208,14.866L14.208,14.866z M23.259,41.359
		c0.281-0.469,0.375-0.984,0.469-1.453c0.093-0.469,0-1.079-0.093-1.548c-0.188-0.891-0.703-1.548-1.453-2.157
		c-0.798-0.563-1.548-0.891-2.439-0.891c-0.188,0-0.375,0-0.61,0.093c-0.188,0.093-0.375,0.093-0.563,0.093
		c-0.469,0.188-0.984,0.375-1.453,0.703c-0.375,0.281-0.798,0.798-1.079,1.266c-0.281,0.469-0.375,0.984-0.469,1.453
		c-0.093,0.469,0,1.079,0.093,1.548c0.188,0.891,0.703,1.548,1.453,2.157c0.798,0.563,1.548,0.798,2.439,0.798
		c0.188,0,0.375,0,0.563,0c0.188,0,0.375,0,0.61-0.093c0.469-0.188,0.984-0.375,1.36-0.703
		C22.602,42.345,22.978,41.923,23.259,41.359L23.259,41.359z"/>
	<path fill="#FF6A00" d="M36.905,17.304c-0.234-0.188-0.516-0.328-0.798-0.328s-0.563,0.141-0.798,0.328l-9.566,9.566l-3.564-3.564
		c-0.188-0.188-0.516-0.328-0.798-0.328c-0.61,0-1.125,0.516-1.125,1.125c0,0.281,0.141,0.61,0.328,0.798l4.361,4.361l0,0
		c0.234,0.188,0.516,0.328,0.798,0.328c0.282,0,0.563-0.141,0.798-0.328l10.363-10.363c0.188-0.234,0.328-0.516,0.328-0.798
		C37.232,17.82,37.139,17.538,36.905,17.304L36.905,17.304z"/>
</g>
</svg>
