<?xml version="1.0" encoding="utf-8"?>
<!-- Generator: Adobe Illustrator 22.0.0, SVG Export Plug-In . SVG Version: 6.00 Build 0)  -->
<svg version="1.1" id="Capa_2_1_" xmlns="http://www.w3.org/2000/svg" xmlns:xlink="http://www.w3.org/1999/xlink" x="0px" y="0px"
	 viewBox="0 0 311 163.3" style="enable-background:new 0 0 311 163.3;" xml:space="preserve">
<style type="text/css">
	.st0{fill:#ED6A1D;}
</style>
<g>
	<path class="st0" d="M27.7,37.3V32c0-3,2.3-5.3,5.3-5.3h167.7c3,0,5.3,2.3,5.3,5.3v5.3c0,3-2.3,5.3-5.3,5.3H33
		C30,42.3,27.7,40,27.7,37.3L27.7,37.3z"/>
	<path class="st0" d="M27.7,89.7v-5.3c0-3,2.3-5.3,5.3-5.3h167.7c3,0,5.3,2.3,5.3,5.3v5.3c0,3-2.3,5.3-5.3,5.3H33
		C30,95,27.7,92.7,27.7,89.7L27.7,89.7z"/>
	<path class="st0" d="M27.7,144.4v-5.3c0-3,2.3-5.3,5.3-5.3h167.7c3,0,5.3,2.3,5.3,5.3v5.3c0,3-2.3,5.3-5.3,5.3H33
		C30,149.8,27.7,147.4,27.7,144.4L27.7,144.4z"/>
	<path class="st0" d="M252.2,55.8c-2,0-3.5-0.5-5-2l-27.8-28.3c-2.5-2.5-2.5-7.6,0-10.1s7.6-2.5,10.1,0l22.7,23.7l23.2-23.2
		c2.5-2.5,7.6-2.5,10.1,0c2.5,2.5,2.5,7.6,0,10.1l-28.2,27.7C256.2,55.3,254.2,55.8,252.2,55.8L252.2,55.8z"/>
</g>
</svg>
