<?xml version="1.0" encoding="utf-8"?>

<svg version="1.1" id="Capa_2_1_" xmlns="http://www.w3.org/2000/svg" xmlns:xlink="http://www.w3.org/1999/xlink" x="0px" y="0px"
	 viewBox="0 0 148.8 70.2" enable-background="new 0 0 148.8 70.2" xml:space="preserve">
<path fill="#FF6A00" d="M0,49.5v-2c0-1.1,0.9-2.1,2.1-2.1h65.5c1.1,0,2.1,0.9,2.1,2.1v2c0,1.2-0.9,2.1-2.1,2.1H2.1
	C0.9,51.6,0,50.7,0,49.5L0,49.5z"/>
<path fill="#FF6A00" d="M0,68.1V66c0-1.2,0.9-2.1,2.1-2.1h65.5c1.1,0,2.1,0.9,2.1,2.1v2.1c0,1.2-0.9,2.1-2.1,2.1H2.1
	C0.9,70.2,0,69.3,0,68.1L0,68.1z"/>
<path fill="#FF6A00" d="M65.2,0H4.503c-2.5,0-4.6,2-4.5,4.5V30c0,2.5,2,4.5,4.5,4.5H65.2c2.5,0,4.5-2,4.5-4.5V4.5
	C69.7,2,67.7,0,65.2,0z M65.2,28.5c0,0.8-0.7,1.5-1.5,1.5H6.003c-0.8,0-1.5-0.7-1.5-1.5V6c0-0.8,0.6-1.5,1.5-1.5H63.7
	c0.8,0,1.5,0.7,1.5,1.5V28.5z"/>
<path fill="#FF6A00" d="M79.1,49.5v-2c0-1.1,0.9-2.1,2.1-2.1h65.5c1.1,0,2.1,0.9,2.1,2.1v2c0,1.2-0.9,2.1-2.1,2.1H81.2
	C80,51.6,79.1,50.7,79.1,49.5L79.1,49.5z"/>
<path fill="#FF6A00" d="M79.1,68.1V66c0-1.2,0.9-2.1,2.1-2.1h65.5c1.1,0,2.1,0.9,2.1,2.1v2.1c0,1.2-0.9,2.1-2.1,2.1H81.2
	C80,70.2,79.1,69.3,79.1,68.1L79.1,68.1z"/>
<path fill="#FF6A00" d="M144.3,0H83.603c-2.5,0-4.6,2-4.5,4.5V30c0,2.5,2,4.5,4.5,4.5H144.3c2.5,0,4.5-2,4.5-4.5V4.5
	C148.8,2,146.8,0,144.3,0z M144.3,28.5c0,0.8-0.7,1.5-1.5,1.5H85.103c-0.8,0-1.5-0.7-1.5-1.5V6c0-0.8,0.6-1.5,1.5-1.5H142.8
	c0.8,0,1.5,0.7,1.5,1.5V28.5z"/>
</svg>
