<?xml version="1.0" encoding="utf-8"?>

<svg version="1.1" id="Capa_1" xmlns="http://www.w3.org/2000/svg" xmlns:xlink="http://www.w3.org/1999/xlink" x="0px" y="0px"
	 viewBox="0 0 44.001 41.02" enable-background="new 0 0 44.001 41.02" xml:space="preserve">
<path fill="#FF6A00" d="M14.163,27.896l-6.952-6.952c-0.249-0.249-0.58-0.384-0.93-0.384c-0.727,0-1.319,0.59-1.319,1.317
	c0,0.348,0.139,0.688,0.386,0.933l4.698,4.7c0.331,0.329,0.189,0.856-0.11,1.153c-0.281,0.281-0.835,0.465-1.156,0.144
	c-1.571-1.571-3.142-3.144-4.715-4.715c-0.59-0.592-0.916-1.379-0.916-2.216c0-1.324,0.839-2.484,2.065-2.93l-1.012-1.012
	c-0.17-0.17-0.266-0.4-0.266-0.643V7.456c0-0.585-0.477-1.062-1.06-1.062c-0.585,0-1.062,0.477-1.062,1.062v16.998l6.89,8.803
	c0.125,0.158,0.192,0.355,0.192,0.559v7.082c0,0.065-0.053,0.12-0.12,0.12c-0.523,0-1.048,0-1.573,0c-0.065,0-0.12-0.055-0.12-0.12
	v-6.77l-6.89-8.803C0.067,25.167,0,24.971,0,24.767V7.457c0-1.585,1.29-2.875,2.875-2.875c1.583,0,2.873,1.29,2.873,2.875v9.461
	l9.964,9.962c0.17,0.17,0.266,0.4,0.266,0.643V40.9c0,0.065-0.055,0.12-0.12,0.12h-1.576c-0.065,0-0.12-0.055-0.12-0.12V27.896
	H14.163z"/>
<path fill="#FF6A00" d="M36.918,34.129v6.77c0,0.065-0.053,0.12-0.12,0.12h-1.573c-0.067,0-0.12-0.055-0.12-0.12v-7.082
	c0-0.204,0.067-0.4,0.192-0.559l6.89-8.803V7.457c0-0.585-0.477-1.062-1.06-1.062c-0.585,0-1.062,0.477-1.062,1.062v9.835
	c0,0.242-0.094,0.472-0.264,0.643l-1.014,1.012c1.225,0.446,2.067,1.607,2.067,2.93c0,0.839-0.326,1.624-0.918,2.216l-4.631,4.631
	c-0.763,0.763-2.005-0.559-1.326-1.237l4.674-4.676c0.245-0.245,0.386-0.585,0.386-0.933c0-0.727-0.592-1.317-1.319-1.317
	c-0.35,0-0.681,0.134-0.928,0.381l-6.955,6.955V40.9c0,0.065-0.055,0.12-0.12,0.12h-1.573c-0.067,0-0.12-0.055-0.12-0.12V27.522
	c0-0.242,0.094-0.472,0.264-0.643l7.216-7.216c0.002-0.002,0.007-0.005,0.01-0.007l2.739-2.739V7.456
	c0-1.585,1.29-2.875,2.875-2.875s2.873,1.29,2.873,2.875v17.31c0,0.204-0.067,0.4-0.192,0.559L36.918,34.129z"/>
<path fill="#FF6A00" d="M21.712,22.235c-0.014-0.002-0.026-0.005-0.038-0.01l-10.228-3.933c-0.35-0.134-0.583-0.472-0.583-0.847
	V4.855c0-0.084,0.014-0.168,0.038-0.249c0,0,0,0,0-0.002c0.01-0.024,0.019-0.048,0.029-0.072c0.019-0.053,0.043-0.103,0.074-0.151
	c0.014-0.024,0.031-0.05,0.05-0.072c0.031-0.046,0.07-0.084,0.11-0.122c0.019-0.017,0.036-0.036,0.058-0.053
	c0.012-0.012,0.022-0.024,0.036-0.034c0.038-0.026,0.079-0.053,0.122-0.074c0.014-0.036,0.043-0.062,0.082-0.074L21.673,0.05
	c0.213-0.082,0.444-0.055,0.652,0.024l10.23,3.935c0.012,0.005,0.019,0.01,0.031,0.014c0.053,0.024,0.106,0.05,0.156,0.084
	c0.012,0.007,0.019,0.017,0.026,0.024c0.024,0.017,0.043,0.036,0.065,0.058c0.041,0.036,0.079,0.074,0.11,0.118
	c0.019,0.024,0.036,0.048,0.05,0.074c0.031,0.048,0.055,0.098,0.074,0.151c0.01,0.026,0.022,0.048,0.029,0.077
	c0.024,0.079,0.038,0.163,0.038,0.247v12.59c0,0.374-0.233,0.71-0.583,0.844l-10.228,3.935c-0.012,0.005-0.024,0.007-0.038,0.01
	c-0.094,0.031-0.189,0.05-0.288,0.05S21.806,22.266,21.712,22.235L21.712,22.235z M12.679,6.174v10.648l8.415,3.237V9.412
	L12.679,6.174z M22.906,20.059l8.417-3.237V6.174l-8.417,3.237C22.906,9.411,22.906,20.059,22.906,20.059z M22,1.891l-7.703,2.964
	L22,7.817l7.703-2.962L22,1.891z"/>
</svg>
