<?xml version="1.0" encoding="utf-8"?>
<!-- Generator: Adobe Illustrator 22.0.0, SVG Export Plug-In . SVG Version: 6.00 Build 0)  -->
<svg version="1.1" id="pf1" xmlns="http://www.w3.org/2000/svg" xmlns:xlink="http://www.w3.org/1999/xlink" x="0px" y="0px"
	 viewBox="0 0 44.2 48.5" style="enable-background:new 0 0 44.2 48.5;" xml:space="preserve">
<style type="text/css">
	.st0{fill:#FF6A00;}
</style>
<g>
	<path class="st0" d="M43.5,10.1c0.1,0.1,0.2,0.3,0.3,0.5s0.1,0.4,0.1,0.6c0,0.2,0,0.5-0.1,0.7s-0.2,0.3-0.3,0.5l-7,7.1
		c-0.1,0.1-0.2,0.1-0.3,0.2s-0.2,0.1-0.3,0.1H24.4v2.1h12.1c0.3,0,0.5,0.1,0.7,0.4s0.3,0.6,0.3,1v14.1c0,0.4-0.1,0.7-0.3,1
		c-0.2,0.3-0.4,0.4-0.7,0.4H24.4v8.3c0,0.4-0.1,0.8-0.3,1c-0.2,0.3-0.8,0.4-1,0.4s-1.2-0.1-1.4-0.4c-0.2-0.3-0.3-0.6-0.3-1v-8.3H8.8
		c-0.1,0-0.2,0-0.3-0.1c-0.1,0-0.2-0.1-0.3-0.2l-7-7C1.1,31.4,1,31.2,0.9,31s-0.2-0.5-0.2-0.7s0-0.5,0.1-0.7
		c0.1-0.1,0.2-0.3,0.3-0.4l7-7.1C8.2,22,8.3,22,8.4,21.9c0.1-0.1,0.2-0.1,0.3-0.1h12.6v-2.1H8.1c-0.3,0-0.5-0.1-0.7-0.4
		s-0.3-0.6-0.3-1V4.2c0-0.4,0.1-0.7,0.3-1s0.4-0.4,0.7-0.4h13.2V1.4c0-0.4,0.1-0.8,0.3-1s1-0.4,1.2-0.4s1,0.1,1.2,0.4s0.3,0.6,0.3,1
		v1.5h11.5c0.1,0,0.2,0,0.3,0.1c0.1,0,0.2,0.1,0.3,0.2L43.5,10.1z M35.5,24.7H9.1l-5.6,5.7L9.1,36h26.4V24.7z M41.2,11.3l-5.6-5.6
		H9.1V17h26.4L41.2,11.3z"/>
</g>
</svg>
